<svg xmlns="http://www.w3.org/2000/svg" width="90" height="66.75" viewBox="0 0 90 66.75">
  <g id="Web" transform="translate(0 -0.475)">
    <g id="Sign-In" transform="translate(-676 -354)">
      <g id="Group-6" transform="translate(563 354)">
        <g id="Group-5">
          <g id="logo" transform="translate(113)">
            <path id="Path" d="M41.75,10.475c0-4.5-2-10-11.25-10A12.714,12.714,0,0,0,22,3.225a18.952,18.952,0,0,1-12.25,4A25.191,25.191,0,0,1,0,5.475c2.75,6.75,9.5,15.25,26.75,15.25C35.75,20.475,41.75,15.225,41.75,10.475Z" fill="#7159c1"/>
            <path id="Path-2" data-name="Path" d="M61.75,47.225c-8.75,0-14-2.75-16.75-5-2.75,2.25-8,5-16.75,5-13.75,0-18.5-18.25-19.75-23.75-1-.5-1.75-.75-2.75-1.25L7,33.725c2.25,19.5,26.25,32.5,38,33.5,11-1.25,35-14,37.5-33.5l1.25-11.75a27.269,27.269,0,0,1-2.75,1.5C80.25,29.225,75.5,47.225,61.75,47.225Z" fill="#7159c1"/>
            <path id="Path-3" data-name="Path" d="M68.25,3.225a13.227,13.227,0,0,0-8.5-2.75c-9.25,0-11.25,5.5-11.25,10,0,4.75,6,10,14.75,10,17.25,0,24-8.5,26.75-15.25a24.77,24.77,0,0,1-9.5,1.75A17.725,17.725,0,0,1,68.25,3.225Z" fill="#7159c1"/>
          </g>
        </g>
      </g>
    </g>
  </g>
</svg>
